<svg xmlns="http://www.w3.org/2000/svg" width="211" height="64" viewBox="0 0 211 64">
  <g id="logof" transform="translate(-15478 -69)">
    <g id="Group_72" data-name="Group 72">
      <g id="partner" transform="translate(15622 66)">
        <path id="Path_35" data-name="Path 35" d="M64.793,29.483H61.476a2.189,2.189,0,0,1-2.106-1.569,25.2,25.2,0,0,0-2.126-5.129,2.19,2.19,0,0,1,.377-2.6l2.347-2.347a2.206,2.206,0,0,0,0-3.121l-4.682-4.682a2.206,2.206,0,0,0-3.121,0l-2.347,2.347a2.19,2.19,0,0,1-2.6.377,25.2,25.2,0,0,0-5.129-2.126,2.187,2.187,0,0,1-1.569-2.106V5.207A2.206,2.206,0,0,0,38.31,3H31.69a2.206,2.206,0,0,0-2.207,2.207V8.524a2.189,2.189,0,0,1-1.569,2.106,25.2,25.2,0,0,0-5.129,2.126,2.19,2.19,0,0,1-2.6-.377l-2.347-2.347a2.206,2.206,0,0,0-3.121,0l-4.682,4.682a2.206,2.206,0,0,0,0,3.121l2.347,2.347a2.19,2.19,0,0,1,.377,2.6,25.2,25.2,0,0,0-2.126,5.129,2.187,2.187,0,0,1-2.106,1.569H5.207A2.206,2.206,0,0,0,3,31.69V38.31a2.206,2.206,0,0,0,2.207,2.207H8.524a2.189,2.189,0,0,1,2.106,1.569,25.2,25.2,0,0,0,2.126,5.129,2.19,2.19,0,0,1-.377,2.6l-2.347,2.347a2.206,2.206,0,0,0,0,3.121l4.682,4.682a2.206,2.206,0,0,0,3.121,0l2.347-2.347a2.19,2.19,0,0,1,2.6-.377,25.2,25.2,0,0,0,5.129,2.126,2.187,2.187,0,0,1,1.569,2.106v3.317A2.206,2.206,0,0,0,31.69,67H38.31a2.206,2.206,0,0,0,2.207-2.207V61.476a2.189,2.189,0,0,1,1.569-2.106,25.2,25.2,0,0,0,5.129-2.126,2.19,2.19,0,0,1,2.6.377l2.347,2.347a2.206,2.206,0,0,0,3.121,0l4.682-4.682a2.206,2.206,0,0,0,0-3.121l-2.347-2.347a2.19,2.19,0,0,1-.377-2.6,25.2,25.2,0,0,0,2.126-5.129,2.187,2.187,0,0,1,2.106-1.569h3.317A2.206,2.206,0,0,0,67,38.31V31.69a2.206,2.206,0,0,0-2.207-2.207ZM35,55.966A20.966,20.966,0,1,1,55.966,35,20.966,20.966,0,0,1,35,55.966Z" fill="#b1b1b1"/>
        <path id="Path_36" data-name="Path 36" d="M13.414,40.552V24H9V41.655h4.414Z" transform="translate(0.621 2.172)" fill="#fff"/>
        <path id="Path_37" data-name="Path 37" d="M51,25.1V41.655h4.414V24H51Z" transform="translate(4.966 2.172)" fill="#fff"/>
        <path id="Path_38" data-name="Path 38" d="M18.517,40.448l16.552,6.621,12.138-3.31L35.069,33.828l12.138,9.931,7.724-2.207V25l-5.517,1.1L37.958,25l-2.931,2.178.042.029-.043-.029-4.281,3.182a2.678,2.678,0,1,0,2.97,4.456l4.243-3.2-4.243,3.2a2.678,2.678,0,1,1-2.97-4.456l4.281-3.182L31.759,25,19.621,26.1,13,25V40.448Z" transform="translate(1.034 2.276)" fill="#ffe5cf"/>
        <g id="Group_9" data-name="Group 9" transform="translate(9.391 52.622)">
          <path id="Path_39" data-name="Path 39" d="M28.884,54.617a2.189,2.189,0,0,0-1.569-2.106,25.2,25.2,0,0,1-5.129-2.126,2.19,2.19,0,0,0-2.6.377l-2.347,2.347a2.206,2.206,0,0,1-3.121,0L9.433,48.427a2.17,2.17,0,0,1-.341-.457,2.2,2.2,0,0,0,.341,2.664l4.682,4.682a2.206,2.206,0,0,0,3.121,0l2.347-2.347a2.19,2.19,0,0,1,2.6-.377,25.2,25.2,0,0,0,5.129,2.126,2.187,2.187,0,0,1,1.569,2.106Z" transform="translate(-8.792 -47.97)" fill="#f9a743"/>
          <path id="Path_40" data-name="Path 40" d="M56.45,48.428,51.769,53.11a2.206,2.206,0,0,1-3.121,0L46.3,50.762a2.19,2.19,0,0,0-2.6-.377,25.2,25.2,0,0,1-5.129,2.126A2.187,2.187,0,0,0,37,54.617v2.207a2.189,2.189,0,0,1,1.569-2.106A25.2,25.2,0,0,0,43.7,52.591a2.19,2.19,0,0,1,2.6.377l2.347,2.347a2.206,2.206,0,0,0,3.121,0l4.682-4.682a2.2,2.2,0,0,0,.341-2.664,2.177,2.177,0,0,1-.341.458Z" transform="translate(-5.874 -47.97)" fill="#f9a743"/>
          <path id="Path_41" data-name="Path 41" d="M35.828,59.207H29.207A2.206,2.206,0,0,1,27,57v2.207a2.206,2.206,0,0,0,2.207,2.207h6.621a2.206,2.206,0,0,0,2.207-2.207V57A2.206,2.206,0,0,1,35.828,59.207Z" transform="translate(-6.909 -47.036)" fill="#f9a743"/>
        </g>
        <path id="Path_42" data-name="Path 42" d="M9,24V41.655h4.414Z" transform="translate(0.621 2.172)" fill="#ededed"/>
        <path id="Path_43" data-name="Path 43" d="M51,41.655h4.414V24Z" transform="translate(4.966 2.172)" fill="#ededed"/>
        <path id="Path_44" data-name="Path 44" d="M46.772,43.264,35.387,33.642,37.173,32.3a2.207,2.207,0,0,0-3.09-.435l-2.429,1.831a1.574,1.574,0,0,1-2.44-1.464,1.6,1.6,0,0,1,.739-1.187L33.621,27a4.759,4.759,0,0,0-3.179.928l-1.758,1.308a3.773,3.773,0,0,0,2.084,6.918,3.881,3.881,0,0,0,2.162-.662l.642-.484,10.645,8.964Z" transform="translate(2.483 2.482)" fill="#e3ccb8"/>
        <path id="Path_45" data-name="Path 45" d="M55,23h6.621V42.862H55Z" transform="translate(5.379 2.069)" fill="#707070"/>
        <path id="Path_46" data-name="Path 46" d="M3,23H9.621V42.862H3Z" transform="translate(0 2.069)" fill="#707070"/>
      </g>
      <text id="امداد_کاران_" data-name="امداد کاران

" transform="translate(15478 78)" fill="#f9a743" font-size="25" font-family="Lalezar-Regular, Lalezar"><tspan x="39.75" y="24">امداد کاران</tspan><tspan y="24"></tspan></text>
      <text id="ارائه_سرویس_های_خدماتی" data-name="ارائه سرویس های خدماتی" transform="translate(15621 120)" fill="#a8a8a8" font-size="13" font-family="Lalezar-Regular, Lalezar"><tspan x="-114.166" y="0">ارائه سرویس های خدماتی</tspan></text>
    </g>
  </g>
</svg>
